# xmcd
#
# Track frame offsets: 
#        150
#        12098
#        29237
#        47763
#        65876
#        80447
#        93744
#        104516
#        125067
#        139749
#        152081
#
# Disc length: 2225 seconds
#
# Revision: 0
# Processed by: cddbd v1.5.2PL0 Copyright (c) Steve Scherf et al.
# Submitted via: ExactAudioCopy v0.95b4
#
DISCID=9f08af0b
DTITLE=Jay D Henley - This'll Be A Memory
DYEAR=2007
DGENRE=Country
TTITLE0=Big Time Lonesome
TTITLE1=Everything's A Thing
TTITLE2=This'll Be A Memory
TTITLE3=The Highway
TTITLE4=Turned It Around
TTITLE5=Mr. Right Now
TTITLE6=Thing Thang Thing
TTITLE7=If Things Go Well
TTITLE8=Deeper
TTITLE9=Honky Tonk Hideaway
TTITLE10=Wasted
EXTD=
EXTT0=
EXTT1=
EXTT2=
EXTT3=
EXTT4=
EXTT5=
EXTT6=
EXTT7=
EXTT8=
EXTT9=
EXTT10=
PLAYORDER=
